<?xml version="1.0" standalone="no"?>
<!DOCTYPE svg PUBLIC "-//W3C//DTD SVG 20010904//EN"
 "https://www.w3.org/TR/2001/REC-SVG-20010904/DTD/svg10.dtd">
<svg version="1.0" xmlns="https://www.w3.org/2000/svg"
 width="777.000000pt" height="185.000000pt" viewBox="0 0 777.000000 185.000000"
 preserveAspectRatio="xMidYMid meet">

<g transform="translate(0.000000,185.000000) scale(0.100000,-0.100000)"
fill="#000000" stroke="none">
<path d="M437 1390 c-97 -25 -210 -108 -249 -185 -29 -55 -35 -158 -14 -210
41 -99 119 -169 226 -205 55 -19 80 -21 162 -18 84 4 106 9 162 37 63 31 136
90 136 110 0 6 -27 19 -60 29 l-61 18 -34 -32 c-94 -89 -254 -83 -349 12 -77
76 -81 180 -10 262 85 100 252 112 354 25 l39 -34 60 18 c34 10 61 23 61 29 0
21 -82 86 -147 116 -53 25 -80 31 -151 34 -48 2 -104 -1 -125 -6z"/>
<path d="M5809 1381 c-30 -10 -70 -28 -87 -41 -59 -43 -78 -120 -45 -183 32
-64 91 -92 254 -122 171 -31 196 -47 168 -108 -33 -73 -179 -76 -323 -6 l-48
24 -34 -40 c-18 -22 -34 -43 -34 -47 0 -13 113 -65 170 -78 31 -7 99 -11 155
-9 85 3 109 8 157 32 98 48 132 145 79 231 -32 51 -83 74 -245 108 -146 30
-176 45 -176 85 0 65 147 85 267 37 l65 -26 34 33 c19 18 34 39 34 46 0 7 -18
22 -40 33 -99 51 -248 64 -351 31z"/>
<path d="M1166 1363 c10 -16 63 -89 119 -163 56 -74 109 -146 118 -160 14 -19
17 -48 17 -142 l0 -118 70 0 70 0 0 116 0 116 53 72 c127 170 217 294 217 300
0 3 -34 6 -75 6 l-74 0 -51 -72 c-92 -133 -133 -188 -139 -188 -3 0 -46 59
-95 130 l-89 130 -80 0 -79 0 18 -27z"/>
<path d="M2577 1369 c-19 -29 -155 -252 -250 -409 -38 -63 -78 -127 -88 -142
-11 -14 -19 -29 -19 -32 0 -3 31 -6 70 -6 l70 0 26 43 c15 23 30 44 34 47 5 3
86 4 182 2 l174 -3 22 -44 22 -45 76 0 76 0 -23 38 c-13 20 -43 69 -68 107
-24 39 -96 156 -158 260 -63 105 -118 194 -123 199 -4 4 -15 -2 -23 -15z m71
-298 c27 -50 47 -92 44 -95 -7 -8 -202 -8 -202 0 0 16 96 184 105 184 2 0 26
-40 53 -89z"/>
<path d="M3410 1086 l0 -306 70 0 70 0 2 180 3 181 239 -181 c131 -99 242
-180 247 -180 5 0 9 135 9 305 l0 305 -70 0 -70 0 0 -186 0 -186 -25 16 c-14
9 -67 49 -118 89 -222 173 -339 262 -348 265 -5 2 -9 -118 -9 -302z"/>
<path d="M4837 1353 c-13 -21 -77 -126 -142 -233 -65 -107 -138 -226 -161
-265 l-43 -70 61 -3 c77 -4 83 -1 108 47 l20 40 157 3 c173 3 213 1 213 -12 0
-5 10 -24 23 -44 22 -35 23 -35 95 -36 l74 0 -23 38 c-12 20 -61 100 -109 177
-48 77 -119 195 -160 263 -40 67 -76 125 -81 128 -5 2 -19 -12 -32 -33z m87
-292 c25 -46 46 -85 46 -87 0 -8 -199 -4 -204 4 -8 13 95 185 104 175 5 -4 29
-46 54 -92z"/>
<path d="M6710 1085 l0 -305 28 0 c15 0 110 -3 212 -7 102 -3 211 -3 243 1
l57 7 0 50 0 49 -200 0 -200 0 0 75 0 75 180 0 180 0 0 50 0 50 -180 0 -180 0
0 80 0 80 200 0 200 0 0 50 0 50 -270 0 -270 0 0 -305z"/>
</g>
</svg>
